<?xml version="1.0" encoding="UTF-8" standalone="no"?>
<svg xmlns="http://www.w3.org/2000/svg" width="400" height="400" viewBox="0 0 400 400">
    <rect width="400" height="400" fill="#eeeed2" />
    <g fill="#769656">
        <rect x="50" y="0" width="50" height="50" />
        <rect x="150" y="0" width="50" height="50" />
        <rect x="250" y="0" width="50" height="50" />
        <rect x="350" y="0" width="50" height="50" />

        <rect x="0" y="50" width="50" height="50" />
        <rect x="100" y="50" width="50" height="50" />
        <rect x="200" y="50" width="50" height="50" />
        <rect x="300" y="50" width="50" height="50" />

        <rect x="50" y="100" width="50" height="50" />
        <rect x="150" y="100" width="50" height="50" />
        <rect x="250" y="100" width="50" height="50" />
        <rect x="350" y="100" width="50" height="50" />

        <rect x="0" y="150" width="50" height="50" />
        <rect x="100" y="150" width="50" height="50" />
        <rect x="200" y="150" width="50" height="50" />
        <rect x="300" y="150" width="50" height="50" />

        <rect x="50" y="200" width="50" height="50" />
        <rect x="150" y="200" width="50" height="50" />
        <rect x="250" y="200" width="50" height="50" />
        <rect x="350" y="200" width="50" height="50" />

        <rect x="0" y="250" width="50" height="50" />
        <rect x="100" y="250" width="50" height="50" />
        <rect x="200" y="250" width="50" height="50" />
        <rect x="300" y="250" width="50" height="50" />

        <rect x="50" y="300" width="50" height="50" />
        <rect x="150" y="300" width="50" height="50" />
        <rect x="250" y="300" width="50" height="50" />
        <rect x="350" y="300" width="50" height="50" />
        <rect x="0" y="350" width="50" height="50" />
        <rect x="100" y="350" width="50" height="50" />
        <rect x="200" y="350" width="50" height="50" />
        <rect x="300" y="350" width="50" height="50" />
    </g>
</svg>